<?xml version="1.0" encoding="utf-8"?>
<!-- Generator: Adobe Illustrator 19.1.0, SVG Export Plug-In . SVG Version: 6.00 Build 0)  -->
<!DOCTYPE svg PUBLIC "-//W3C//DTD SVG 1.1//EN" "http://www.w3.org/Graphics/SVG/1.1/DTD/svg11.dtd">
<svg version="1.1" id="UE" xmlns="http://www.w3.org/2000/svg" xmlns:xlink="http://www.w3.org/1999/xlink" x="0px" y="0px"
	 viewBox="-5 161.3 176.6 79" style="enable-background:new -5 161.3 176.6 79;" xml:space="preserve">
<style type="text/css">
	.st0{fill:#77777A;}
</style>
<g>
	<g>
		<rect x="38.7" y="224.5" class="st0" width="1.4" height="1"/>
		<rect x="38.7" y="227" class="st0" width="1.4" height="7.6"/>
	</g>
	<g>
		<path class="st0" d="M111.1,230v1h8.6v-0.8c0-2.7-2-3.2-4.7-3.2h-2.4c-1,0-2.1,0-2.9,0.4c-0.5,0.3-1.4,0.9-1.4,2.4v0.1v1.9
			c0,0.3,0.1,0.7,0.1,0.8c0.2,0.6,0.4,1,0.8,1.3c0.8,0.7,2,0.8,3.3,0.8h3c3.1,0,4.1-0.7,4.3-2.3h-1.4c-0.2,1-0.9,1.3-2.8,1.3h-2.2
			c-2.6,0-3.5-0.6-3.5-2V230c0-1.3,0.7-1.9,3.1-1.9h2.2c2.5,0,3.2,0.6,3.3,1.9v0.1L111.1,230L111.1,230z"/>
		<path class="st0" d="M136.4,229.8c0-0.3,0.1-0.7,0.1-0.8c0.2-0.6,0.4-1,0.8-1.3c0.8-0.7,2-0.7,3.3-0.7h0.7c1.2,0,2.4-0.1,3.3,0.7
			c0.3,0.3,0.7,0.7,0.8,1.3v0.1h-1.5c-0.3-0.8-1-1-2.8-1c-0.1,0-0.1,0-0.1,0c-2.3,0.1-3,0.5-3,1.8v4.8h-1.4L136.4,229.8L136.4,229.8
			z"/>
		<path class="st0" d="M146.9,231.9c0,1.4,1,2.2,1.5,2.4c0.8,0.4,1.8,0.4,2.8,0.4c0,0,0.2,0,2.4,0c1.6,0,2.9-0.2,3.6-0.6
			c0.6-0.4,1-0.9,1-1.8c0-0.6-0.2-1-0.6-1.4c-0.4-0.4-0.8-0.5-1.7-0.7c-0.7-0.1-2-0.1-2-0.1s-2.4,0-2,0s-1.1,0.1-2.2-0.1
			c-1-0.1-1.3-0.6-1.3-0.9s0.3-0.7,0.9-0.8c0.6-0.2,1.4-0.2,2.4-0.2c1,0,1.3,0,2.3,0s2.4,0.3,2.6,1.3h1.5c-0.2-1.6-1.1-2.3-4.2-2.3
			c0,0-1.8,0-2.2,0s-2.2-0.1-3.3,0.3c-1.1,0.3-1.5,1-1.5,1.7c0,1.1,0.8,1.8,2.1,1.9c1,0.1,1.8,0.1,2.5,0.1s1.7,0,2.4,0
			c0.8,0,1.7,0,2.2,0.2c0.5,0.2,0.6,0.6,0.6,0.9c0,0.5-0.2,0.9-1,1.3c-0.7,0.3-2.1,0.2-2.2,0.2h-2.1c-1.9,0-3-0.6-3.1-1.8
			L146.9,231.9z"/>
		<path class="st0" d="M133.7,231.8v-1.9c0-0.2,0-0.4-0.1-0.6c0-0.1-0.1-0.2-0.1-0.2c0-0.1-0.1-0.1-0.1-0.2
			c-0.2-0.6-0.4-0.9-0.7-1.2c-0.2-0.2-0.5-0.3-0.7-0.4c-0.2-0.1-0.4-0.1-0.6-0.2c-0.3-0.1-0.7-0.1-1-0.1c-0.8-0.1-1.5-0.1-1.8-0.1
			c-0.1,0-0.4,0-0.7,0c-0.3,0-0.6,0-0.7,0c-0.3,0-1,0-1.8,0.1c-0.4,0-0.8,0.1-1,0.1c-0.2,0.1-0.4,0.1-0.5,0.1
			c-1,0.3-1.5,1.1-1.5,1.8c0,0.1,0,0.1,0,0.2h1.5c0.2-0.9,0.8-1.3,2.7-1.3h0.6h1.6c1.5,0,2.4,0.2,2.9,0.6c0.2,0.2,0.4,0.3,0.4,0.6
			c0,0.1,0.1,0.1,0.1,0.2c0.1,0.2,0.1,0.4,0.1,0.7v0.1v0.1v0.1c-0.5-0.2-1.3-0.2-1.8-0.2c-0.1,0-0.1,0-0.2,0c0,0-3.5,0-4.6,0
			c-0.1,0-0.1,0-0.2,0c-0.5,0-1.3,0.1-1.8,0.2c-0.3,0.1-0.5,0.2-0.7,0.3c-0.5,0.3-0.8,0.8-0.8,1.4v0.1c0,0.1,0,0.1,0,0.1
			c0.1,0.8,0.5,1.5,0.9,1.8c0.2,0.1,0.3,0.2,0.4,0.3c0,0,0.1,0,0.1,0.1c0.8,0.3,1.7,0.4,2.7,0.4c0.1,0,0.2,0,0.3,0c0,0,0,0,0.2,0
			l0,0c0.4,0,0.8,0,1.1,0c0.3,0,0.7,0,1.1,0l0,0c1.4,0,2.5-0.1,3.2-0.4c0.1-0.1,0.2-0.1,0.3-0.2c0.6-0.4,1-0.9,1-1.8
			C133.7,232.2,133.7,231.8,133.7,231.8z M131.3,233.4c-0.7,0.3-2.1,0.2-2.3,0.2h-2.1c-0.2,0-1.6,0.1-2.3-0.2c-0.8-0.3-1-0.8-1-1.3
			c0-0.3,0.1-0.6,0.4-0.8c0.1-0.1,0.1-0.1,0.2-0.1c0.1-0.1,0.2-0.1,0.3-0.1c0.3-0.1,0.7-0.1,1.1-0.1c1.3,0,4.5,0,4.5,0
			c0.4,0,0.8,0.1,1.1,0.1c0.1,0.1,0.2,0.1,0.3,0.1c0.1,0.1,0.2,0.1,0.2,0.1c0.3,0.2,0.4,0.5,0.4,0.8
			C132.3,232.7,132.1,233.2,131.3,233.4z"/>
	</g>
	<path class="st0" d="M18.3,227v4.6c0,1.4-0.9,2-3.5,2h-1.6c-2.6,0-3.5-0.6-3.5-2V227H8.3v4.6c0,0.3,0.1,0.7,0.1,0.8
		c0.2,0.6,0.4,1,0.8,1.3c0.8,0.8,2,0.8,3.3,0.8h3.2c1.3,0,2.4-0.1,3.3-0.8c0.3-0.3,0.7-0.7,0.8-1.3c0-0.1,0.1-0.4,0.1-0.8V227H18.3z
		"/>
	<path class="st0" d="M89.3,230v1h8.6v-0.8c0-2.7-2-3.2-4.7-3.2h-2.4c-1,0-2.1,0-2.9,0.4c-0.5,0.3-1.4,0.9-1.4,2.4v0.1v1.9
		c0,0.3,0.1,0.7,0.1,0.8c0.2,0.6,0.4,1,0.8,1.3c0.8,0.7,2,0.8,3.3,0.8h3c3.1,0,4.1-0.7,4.3-2.3h-1.5c-0.2,1-0.9,1.3-2.8,1.3h-2.2
		c-2.6,0-3.5-0.6-3.5-2V230c0-1.3,0.7-1.9,3.1-1.9h2.2c2.5,0,3.2,0.6,3.3,1.9v0.1L89.3,230L89.3,230z"/>
	<rect x="22.8" y="224" class="st0" width="1.4" height="10.7"/>
	<path class="st0" d="M50.9,227.8c0.1-0.1,0.1-0.1,0.1-0.1c0.8-0.7,2-0.7,3.2-0.7h0.7c1.2,0,2.4-0.1,3.2,0.7
		c0.3,0.3,0.6,0.7,0.8,1.3c0,0.1,0.1,0.4,0.1,0.8v4.9h-1.4v-4.8c0-1.3-0.7-1.8-3-1.8c-0.1,0-0.1,0-0.1,0c-1.8,0-2.2,0.2-2.5,0.6
		c-0.3,0.3-0.3,0.8-0.3,0.9s0,5.1,0,5.1h-1.5c0,0,0-5,0-5.1s-0.1-0.7-0.3-0.9c-0.3-0.3-0.8-0.5-2.5-0.6c-0.1,0-0.1,0-0.1,0
		c-2.2,0.1-3,0.5-3,1.8v4.8h-1.4v-4.9c0-0.3,0.1-0.7,0.1-0.8c0.2-0.6,0.4-1,0.8-1.3c0.8-0.7,2-0.7,3.2-0.7h0.7
		C48.8,227.1,50,227,50.9,227.8C50.8,227.7,50.8,227.7,50.9,227.8"/>
	<path class="st0" d="M72.9,231.7v-1.8c0-0.2,0-0.4-0.1-0.6c0-0.1-0.1-0.2-0.1-0.2c0-0.1,0-0.1-0.1-0.2c-0.2-0.6-0.4-0.9-0.7-1.2
		c-0.2-0.2-0.5-0.3-0.7-0.4c-0.2-0.1-0.4-0.1-0.6-0.2c-0.3-0.1-0.7-0.1-1-0.1c-0.8-0.1-1.5-0.1-1.8-0.1c-0.2,0-0.4,0-0.7,0
		c-0.3,0-0.6,0-0.7,0c-0.3,0-1,0-1.8,0.1c-0.4,0-0.7,0.1-1,0.1c-0.2,0.1-0.4,0.1-0.5,0.1c-1,0.3-1.5,1.1-1.5,1.8c0,0.1,0,0.1,0,0.2
		h1.5c0.2-0.9,0.8-1.3,2.7-1.3h0.6h1.6c1.5,0,2.4,0.2,2.9,0.6c0.2,0.2,0.4,0.4,0.4,0.6c0,0.1,0.1,0.1,0.1,0.2
		c0.1,0.2,0.1,0.4,0.1,0.7v0.1v0.1v0.1c-0.5-0.2-1.3-0.2-1.8-0.2c-0.1,0-0.1,0-0.2,0c0,0-3.5,0-4.6,0c-0.1,0-0.1,0-0.2,0
		c-0.5,0-1.3,0.1-1.8,0.2c-0.3,0.1-0.5,0.2-0.7,0.3c-0.5,0.3-0.8,0.8-0.8,1.4v0.1c0,0.1,0,0.1,0,0.1c0.1,0.8,0.5,1.4,0.9,1.8
		c0.2,0.1,0.3,0.2,0.4,0.3c0.1,0,0.1,0.1,0.1,0.1c0.8,0.4,1.8,0.4,2.7,0.4c0.1,0,0.2,0,0.3,0c0,0,0,0,0.2,0l0,0c0.4,0,0.8,0,1.1,0
		c0.3,0,0.7,0,1.1,0l0,0c1.4,0,2.5-0.1,3.2-0.4c0.1-0.1,0.2-0.1,0.3-0.2c0.6-0.4,1-0.9,1-1.8C72.9,232.2,72.9,231.7,72.9,231.7z
		 M70.4,233.4c-0.7,0.3-2.1,0.2-2.3,0.2H66c-0.2,0-1.6,0.1-2.2-0.2c-0.8-0.3-1-0.8-1-1.3c0-0.3,0.1-0.6,0.4-0.8
		c0.1-0.1,0.1-0.1,0.2-0.1s0.2-0.1,0.3-0.1c0.3-0.1,0.7-0.1,1.1-0.1c1.3,0,4.5,0,4.5,0c0.4,0,0.8,0.1,1.1,0.1
		c0.1,0.1,0.2,0.1,0.3,0.1c0.1,0.1,0.2,0.1,0.2,0.1c0.3,0.2,0.4,0.5,0.4,0.8C71.4,232.6,71.2,233.1,70.4,233.4z"/>
	<path class="st0" d="M36.5,232.4h-1.5c0,0,0,0.1-0.1,0.2c-0.3,0.8-1,1-2.8,1c-0.1,0-0.1,0-0.1,0c-2.3-0.1-3-0.5-3-1.8v-3.7h6v-1h-6
		v-2h-1.4v2h-1.4v1h1.4v3.8c0,0.3,0.1,0.7,0.1,0.8c0.2,0.6,0.4,1,0.8,1.3c0.8,0.7,2,0.7,3.3,0.7h0.7c1.2,0,2.4,0.1,3.3-0.7
		c0.3-0.3,0.7-0.8,0.8-1.3C36.5,232.4,36.5,232.4,36.5,232.4z"/>
	<path class="st0" d="M84.7,232.4h-1.5c0,0,0,0.1-0.1,0.2c-0.3,0.8-1,1-2.8,1c-0.1,0-0.1,0-0.1,0c-2.3-0.1-3-0.5-3-1.8v-3.7h6v-1h-6
		v-2h-1.4v2h-1.4v1h1.4v3.8c0,0.3,0.1,0.7,0.1,0.8c0.2,0.6,0.4,1,0.8,1.3c0.8,0.7,2,0.7,3.3,0.7h0.7c1.2,0,2.4,0.1,3.3-0.7
		c0.3-0.3,0.7-0.8,0.8-1.3C84.6,232.4,84.7,232.4,84.7,232.4z"/>
</g>
<g>
	<g>
		<path class="st0" d="M148.9,200.8c-1,6.2-6,8.5-18.2,8.5h-14.2c-16.4,0-22.3-3.9-22.3-12.9v-10.7c0-8.6,4.3-12.4,19.6-12.4h13.9
			c15.8,0,20.7,3.9,21,12v0.8h-45.9v6.5h55.4v-5.3c0-17-12.5-20.6-29.9-20.6h-15.6c-6.6,0-13.2-0.1-18.4,2.3
			c-3.4,1.6-9,5.6-9.2,15.5c0,0.7-0.2,1-0.5,1.3c-0.4,0.4-1,0.4-2,0.4c-1.1,0-1.7-0.2-2-0.5c-0.3-0.4-0.3-0.9-0.3-1.7l0,0v-16.6
			h-9.9v31.6c0,4.2-2.7,6.7-5.7,7.8s-5.1,2.2-21,2.2c-14.9,0-17.5-1.1-20.2-2.3c-2.8-1.1-5.4-3.6-5.4-7.8v-31.6H8.4v31.6
			c0,5.1,2.6,10.3,7.3,13c6.2,3.5,10.5,3.6,28.1,3.6c17.9,0,24-0.7,29.6-3.9c3.2-1.8,6.2-5.5,7-10.4c0.2-1,0.1-1.5,0.5-2
			c0.4-0.4,1-0.4,2-0.4c0.8,0,1.4-0.1,1.9,0.3c0.6,0.3,0.8,1.4,1.1,2.6c0.9,4,2.7,6.5,5,8.5c5.4,4.8,13,5.2,20.9,5.2H131
			c19.6,0,26.4-4.6,27.3-15L148.9,200.8L148.9,200.8z"/>
	</g>
</g>
</svg>
